<?xml version="1.0" encoding="utf-8"?>
<!-- Generator: Adobe Illustrator 22.0.1, SVG Export Plug-In . SVG Version: 6.00 Build 0)  -->
<svg version="1.1" id="图层_1" xmlns="http://www.w3.org/2000/svg" xmlns:xlink="http://www.w3.org/1999/xlink" x="0px" y="0px"
	 viewBox="0 0 110 110" style="enable-background:new 0 0 110 110;" xml:space="preserve">
<style type="text/css">
	.st0{fill:#4D7CBF;}
	.st1{fill:#A0B8DF;}
	.st2{fill:#EFF4FB;}
	.st3{fill:#C1D0EB;}
</style>
<g>
	<g>
		<circle class="st0" cx="55" cy="55" r="55"/>
	</g>
	<path class="st1" d="M83.2,37.4L57.8,24.7c-1.8-0.9-3.9-0.9-5.7,0L26.8,37.4c-2.2,1.1-3.5,3.3-3.5,5.7v23.9c0,2.4,1.4,4.6,3.5,5.7
		l25.4,12.7c1.8,0.9,3.9,0.9,5.7,0l25.4-12.7c2.2-1.1,3.5-3.3,3.5-5.7V43C86.7,40.6,85.4,38.4,83.2,37.4z"/>
	<path class="st2" d="M81.1,54.7L56.3,42.3c-0.8-0.4-1.8-0.4-2.6,0L28.9,54.7l24.8,12.9c0.8,0.4,1.8,0.4,2.7,0L81.1,54.7z"/>
	<path class="st3" d="M56.3,57.6c-0.8,0.4-1.8,0.4-2.6,0L23.4,41.7c-0.1,0.3-0.1,0.7-0.1,1v24.6c0,2.2,1.2,4.2,3.2,5.2l25.9,13
		c1.6,0.8,3.5,0.8,5.2,0l25.9-13c2-1,3.2-3,3.2-5.2V42.7c0-0.3,0-0.7-0.1-1L56.3,57.6z"/>
</g>
</svg>
